<svg xmlns="http://www.w3.org/2000/svg" width="335" height="245.179" viewBox="0 0 335 245.179">
  <g id="Group_12" data-name="Group 12" transform="translate(-64.674 -51.048)">
    <path id="Path_13" data-name="Path 13" d="M393.829,241.373H70.518a5.845,5.845,0,0,1-5.844-5.845h0a5.844,5.844,0,0,1,5.844-5.844H393.829a5.845,5.845,0,0,1,5.845,5.844h0A5.845,5.845,0,0,1,393.829,241.373Z" transform="translate(0 54.854)" fill="#7b7b7b"/>
    <g id="Group_11" data-name="Group 11" transform="translate(123.03 51.048)">
      <path id="Path_14" data-name="Path 14" d="M294.227,63.443V274.661a12.4,12.4,0,0,1-12.395,12.4H151.359a12.4,12.4,0,0,1-12.395-12.4V63.443a12.4,12.4,0,0,1,12.395-12.395H281.832A12.4,12.4,0,0,1,294.227,63.443Z" transform="translate(-100.217 -51.048)" fill="#7b7b7b"/>
      <rect id="Rectangle_2" data-name="Rectangle 2" width="155.269" height="236.011" rx="14.063" transform="translate(25.997 0.001)" fill="#c4c4c4"/>
      <path id="Path_38" data-name="Path 38" d="M9.483,0H130.688a9.483,9.483,0,0,1,9.483,9.483V210.542a9.483,9.483,0,0,1-9.483,9.483H9.483A9.483,9.483,0,0,1,0,210.541V9.483A9.483,9.483,0,0,1,9.483,0Z" transform="translate(33.567 6.453)" fill="#7b7b7b"/>
      <path id="Path_15" data-name="Path 15" d="M253.463,106.379h0a2.406,2.406,0,0,1-2.406-2.406V75.849a2.406,2.406,0,0,1,2.406-2.406h0a2.406,2.406,0,0,1,2.406,2.406v28.123A2.406,2.406,0,0,1,253.463,106.379Z" transform="translate(-65.796 -44.171)" fill="#fff"/>
      <path id="Path_16" data-name="Path 16" d="M253.463,115.813h0a2.406,2.406,0,0,1-2.406-2.406v-8.025a2.407,2.407,0,0,1,2.406-2.406h0a2.407,2.407,0,0,1,2.406,2.406v8.025A2.406,2.406,0,0,1,253.463,115.813Z" transform="translate(-65.796 -35.103)" fill="#fff"/>
      <path id="Path_17" data-name="Path 17" d="M274.883,74.443v183.64a12.4,12.4,0,0,1-12.395,12.395H147.106a12.4,12.4,0,0,1-12.395-12.395V74.443Z" transform="translate(-101.523 -43.864)" fill="#fff"/>
      <path id="Path_18" data-name="Path 18" d="M160.889,69.945H144.076a3.874,3.874,0,0,1-3.873-3.873h0a3.874,3.874,0,0,1,3.873-3.873h16.813a3.873,3.873,0,0,1,3.873,3.873h0A3.873,3.873,0,0,1,160.889,69.945Z" transform="translate(-99.837 -47.624)" fill="#fff"/>
      <path id="Path_19" data-name="Path 19" d="M169.422,69.945h-4.534a3.872,3.872,0,0,1-3.872-3.873h0a3.872,3.872,0,0,1,3.872-3.873h4.534a3.874,3.874,0,0,1,3.873,3.873h0A3.874,3.874,0,0,1,169.422,69.945Z" transform="translate(-93.446 -47.624)" fill="#fff"/>
      <path id="Path_20" data-name="Path 20" d="M215.616,65a2.8,2.8,0,1,1-2.8-2.8A2.8,2.8,0,0,1,215.616,65Z" transform="translate(-78.401 -47.624)" fill="#fff"/>
      <path id="Path_21" data-name="Path 21" d="M222.7,65a2.8,2.8,0,1,1-2.8-2.8A2.8,2.8,0,0,1,222.7,65Z" transform="translate(-76.226 -47.624)" fill="#fff"/>
      <path id="Path_22" data-name="Path 22" d="M229.778,65a2.8,2.8,0,1,1-2.8-2.8A2.8,2.8,0,0,1,229.778,65Z" transform="translate(-74.051 -47.624)" fill="#fff"/>
      <path id="Path_23" data-name="Path 23" d="M258.618,166.881H145.649c-1.251,0-2.266-.592-2.266-1.323h0c0-.731,1.016-1.321,2.266-1.321H258.618c1.252,0,2.266.591,2.266,1.321h0C260.885,166.289,259.871,166.881,258.618,166.881Z" transform="translate(-98.86 -16.291)" fill="#b1b1b0"/>
      <rect id="Rectangle_4" data-name="Rectangle 4" width="69.955" height="84.504" transform="translate(71.822 54.714)" fill="#25d366" opacity="0.3"/>
      <path id="Path_24" data-name="Path 24" d="M228.962,175.635H164.48a.882.882,0,0,1-.881-.882h0a.881.881,0,0,1,.881-.881h64.482a.881.881,0,0,1,.881.881h0A.882.882,0,0,1,228.962,175.635Z" transform="translate(-92.652 -13.332)" fill="#b1b1b0"/>
      <path id="Path_25" data-name="Path 25" d="M228.962,179.971H164.48a.882.882,0,0,1-.881-.882h0a.881.881,0,0,1,.881-.881h64.482a.881.881,0,0,1,.881.881h0A.882.882,0,0,1,228.962,179.971Z" transform="translate(-92.652 -12.001)" fill="#b1b1b0"/>
      <path id="Path_26" data-name="Path 26" d="M228.962,184.306H164.48a.881.881,0,0,1-.881-.881h0a.881.881,0,0,1,.881-.881h64.482a.881.881,0,0,1,.881.881h0A.881.881,0,0,1,228.962,184.306Z" transform="translate(-92.652 -10.669)" fill="#b1b1b0"/>
      <path id="Path_27" data-name="Path 27" d="M228.962,188.642H164.48a.881.881,0,0,1-.881-.881h0a.882.882,0,0,1,.881-.882h64.482a.882.882,0,0,1,.881.882h0A.881.881,0,0,1,228.962,188.642Z" transform="translate(-92.652 -9.338)" fill="#b1b1b0"/>
      <path id="Path_28" data-name="Path 28" d="M228.962,192.978H164.48a.881.881,0,0,1-.881-.881h0a.882.882,0,0,1,.881-.882h64.482a.882.882,0,0,1,.881.882h0A.881.881,0,0,1,228.962,192.978Z" transform="translate(-92.652 -8.007)" fill="#b1b1b0"/>
      <circle id="Ellipse_2" data-name="Ellipse 2" cx="12.468" cy="12.468" r="12.468" transform="translate(93.499 192.276)" fill="#25d366"/>
      <circle id="Ellipse_3" data-name="Ellipse 3" cx="8.595" cy="8.595" r="8.595" transform="translate(149.462 42.823)" fill="#25d366" opacity="0.3"/>
      <path id="Path_29" data-name="Path 29" d="M226.3,92.283l4,2.3,5.03-7.145" transform="translate(-73.4 -39.873)" fill="none" stroke="#fff" stroke-linecap="round" stroke-linejoin="round" stroke-width="2"/>
      <g id="Group_10" data-name="Group 10" transform="translate(19.568 43.356)">
        <path id="Path_30" data-name="Path 30" d="M157.356,107.779V96.037a11.819,11.819,0,0,1,11.82-11.819h0a11.818,11.818,0,0,1,11.819,11.819v11.743" transform="translate(-114.138 -84.218)" fill="none" stroke="#4c4c4c" stroke-linecap="round" stroke-linejoin="round" stroke-width="2"/>
        <path id="Path_31" data-name="Path 31" d="M202.6,173.486H124.291l3.7-76.059H198.9l3.108,63.857Z" transform="translate(-124.291 -80.162)" fill="#dc911b"/>
        <path id="Path_32" data-name="Path 32" d="M202.6,173.486H124.291l3.7-76.059h.135c1.265,7.252,7.895,40.009,26.484,54.342,14.38,11.089,35.531,10.791,47.4,9.515Z" transform="translate(-124.291 -80.162)" fill="#ce7a0b"/>
        <path id="Path_33" data-name="Path 33" d="M147.4,102.733a2.082,2.082,0,1,1-2.081-2.081A2.081,2.081,0,0,1,147.4,102.733Z" transform="translate(-118.472 -79.172)" fill="#fff"/>
        <path id="Path_34" data-name="Path 34" d="M165.488,102.733a2.082,2.082,0,1,1-2.081-2.081A2.081,2.081,0,0,1,165.488,102.733Z" transform="translate(-112.919 -79.172)" fill="#fff"/>
        <path id="Path_35" data-name="Path 35" d="M144.833,107.779V96.037a11.818,11.818,0,0,1,11.819-11.819h0a11.819,11.819,0,0,1,11.82,11.819v11.743" transform="translate(-117.983 -84.218)" fill="none" stroke="#6f6f6e" stroke-linecap="round" stroke-linejoin="round" stroke-width="2"/>
        <path id="Path_36" data-name="Path 36" d="M181.373,97.427h10.64l5.463,76.059h-12.4Z" transform="translate(-106.763 -80.162)" fill="#b56709"/>
      </g>
      <path id="Path_37" data-name="Path 37" d="M259.707,160.695H111.86a2.54,2.54,0,0,1-2.54-2.538h0a2.54,2.54,0,0,1,2.54-2.54H259.707a2.54,2.54,0,0,1,2.54,2.54h0A2.54,2.54,0,0,1,259.707,160.695Z" transform="translate(-109.32 -18.938)" fill="#25d366" opacity="0.3"/>
    </g>
  </g>
</svg>
